<?xml version="1.0" standalone="no"?>
<!DOCTYPE svg PUBLIC "-//W3C//DTD SVG 20010904//EN"
 "http://www.w3.org/TR/2001/REC-SVG-20010904/DTD/svg10.dtd">
<svg version="1.0" xmlns="http://www.w3.org/2000/svg"
 width="260.000000pt" height="260.000000pt" viewBox="0 0 260.000000 260.000000"
 preserveAspectRatio="xMidYMid meet">
<metadata>
Created by potrace 1.11, written by Peter Selinger 2001-2013
</metadata>
<g transform="translate(0.000000,260.000000) scale(0.100000,-0.100000)"
fill="#000000" stroke="none">
<path d="M0 1955 l0 -325 80 0 c90 0 83 -9 82 98 l0 62 488 0 487 0 1 -382 c0
-211 1 -393 1 -405 1 -22 5 -23 81 -23 l80 0 0 488 0 487 -323 0 -322 0 -3 81
-3 81 308 0 c169 1 316 2 326 2 15 1 17 12 17 81 l0 80 -405 0 -405 0 -1 -22
c-1 -13 -2 -86 -3 -163 l-1 -140 -160 0 -160 0 -1 150 c-1 83 -2 156 -3 163
-1 8 -24 12 -81 12 l-80 0 0 -325z"/>
<path d="M1460 1305 l0 -975 83 0 83 0 -1 143 c-1 199 -8 183 83 182 l77 -1 2
-134 c0 -74 1 -147 2 -162 l1 -28 80 0 80 0 0 975 0 975 -245 0 -245 0 0 -975z
m326 163 c1 -477 -1 -648 -10 -649 -15 -1 -129 -1 -141 0 -7 1 -10 220 -9 638
1 351 2 644 3 650 1 10 22 12 79 10 l77 -2 1 -647z"/>
<path d="M2117 2272 c-3 -4 -5 -442 -5 -975 l0 -967 82 0 82 0 -1 156 c0 97 3
158 10 162 5 4 42 7 81 7 l72 0 0 -145 c0 -80 1 -153 1 -162 1 -16 12 -18 81
-18 l80 0 0 975 0 975 -239 0 c-132 0 -242 -3 -244 -8z m320 -803 l0 -647 -41
-4 c-23 -1 -59 -1 -81 2 l-40 5 0 635 c0 349 4 640 8 646 4 7 36 12 80 11 l74
0 0 -648z"/>
<path d="M329 1628 c-1 -2 -2 -148 -3 -326 l-1 -322 325 2 325 3 0 323 0 322
-322 0 c-178 0 -324 -1 -324 -2z m481 -323 l0 -161 -160 0 -160 -1 -1 28 c0
16 0 72 0 124 0 52 0 112 0 134 l1 39 160 -1 160 -1 0 -161z"/>
<path d="M0 899 l0 -569 650 0 650 0 0 244 0 243 -485 1 c-356 0 -485 -3 -486
-12 -4 -41 -4 -146 1 -147 3 -1 183 -3 400 -4 217 -1 398 -3 401 -4 3 0 6 -36
6 -79 l2 -79 -487 1 -487 1 -1 475 c-1 261 -2 480 -3 486 -1 8 -28 12 -81 12
l-80 0 0 -569z"/>
</g>
</svg>
