<svg xmlns="http://www.w3.org/2000/svg" width="47.667" height="35.999" viewBox="0 0 47.667 35.999"><path d="M43.751,35V29.165H40.834V35H37.917V0h8.75V35ZM40.834,26.25h2.917V2.916H40.834ZM32.084,35V29.165H29.167V35H26.249V0H35V35ZM29.167,26.25h2.917V2.916H29.167ZM2.917,35H0V14.583H2.917v17.5h17.5V29.166H5.834V26.25h17.5V35Zm17.5-11.666V8.75H2.917v2.917H0V0H2.917V5.833H8.75V0H23.333V2.917H11.668V5.833H23.333v17.5Zm-5.834,0H5.834V11.666H17.5V23.333ZM8.75,20.416h5.834V14.583H8.75Z" transform="translate(0.5 0.5)" fill="#e82717" stroke="rgba(0,0,0,0)" stroke-miterlimit="10" stroke-width="1"/></svg>